<svg id="Layer_4" height="512" viewBox="0 0 24 24" width="512" xmlns="http://www.w3.org/2000/svg" data-name="Layer 4"><g fill="#662d91"><path d="m14.3135 6.87a.5.5 0 0 1 -.5.5h-4.6192a2.7179 2.7179 0 0 0 -2.6504 2.26h7.27a.5.5 0 0 1 .5.5v1.3257l3.1347-2.9556-3.1351-2.9249z"/><path d="m20.07.5361a61.0012 61.0012 0 0 0 -16.1018-.005 3.9793 3.9793 0 0 0 -3.4321 3.3989 61.0009 61.0009 0 0 0 -.0053 16.1 3.9949 3.9949 0 0 0 3.4389 3.44 60.9906 60.9906 0 0 0 7.9715.53 60.9955 60.9955 0 0 0 8.09-.5309 3.98 3.98 0 0 0 3.4327-3.3991 61.0038 61.0038 0 0 0 .5361-8.07 61.0048 61.0048 0 0 0 -.5311-8.0318 3.9793 3.9793 0 0 0 -3.3989-3.4321zm-5.2643 17.1133h-4.1192v.9463a.8908.8908 0 0 1 -.5488.8223.9644.9644 0 0 1 -.3887.082.9513.9513 0 0 1 -.6465-.252l-3.3134-3.06a.8811.8811 0 0 1 0-1.3052l3.3134-3.06a.9533.9533 0 0 1 1.0352-.17.8908.8908 0 0 1 .5488.8223v.9463h7.3135a.5.5 0 0 1 .5.5 3.7153 3.7153 0 0 1 -3.6943 3.728zm3.4072-8.4956-3.3135 3.0918a.95.95 0 0 1 -.6484.2544.96.96 0 0 1 -.3848-.0806.8957.8957 0 0 1 -.5527-.8276v-.9618h-7.3135a.5.5 0 0 1 -.5-.5 3.7321 3.7321 0 0 1 3.6943-3.76h4.1192v-.9618a.8957.8957 0 0 1 .5527-.8276.955.955 0 0 1 1.0332.1738l3.3135 3.0918a.888.888 0 0 1 0 1.3076z"/><path d="m9.6865 13.9219v-1.3057l-3.1308 2.919 3.1308 2.8916v-1.2774a.5.5 0 0 1 .5-.5h4.6192a2.7088 2.7088 0 0 0 2.6494-2.2275h-7.2686a.5.5 0 0 1 -.5-.5z"/></g></svg>