<svg enable-background="new 0 0 100 100" viewBox="0 0 100 100" xmlns="http://www.w3.org/2000/svg"><g id="Layer_1"/><g id="Layer_2"><g><g><g fill="#f00"><path d="m50 2.5c-26.234 0-47.5 21.323-47.5 47.626 2.502 63.175 92.507 63.157 95-.001 0-26.302-21.267-47.625-47.5-47.625zm0 74.899c-15.036 0-27.27-12.233-27.27-27.27.74-18.662 14.654-27.134 27.269-27.134h.002c12.616.001 26.531 8.473 27.267 27.073.002 15.099-12.232 27.331-27.268 27.331z"/><path d="m50.002 26.103c-15.946-.001-23.704 12.486-24.165 24.088.001 13.262 10.84 24.101 24.163 24.101s24.162-10.839 24.162-24.162c-.457-11.539-8.214-24.025-24.16-24.027z"/></g><path d="m41.055 52.528c-.001 2.575.001 7.867 0 10.46 0 0 21.802-13.417 21.802-13.417l-21.802-12.299z" fill="#f1f1f1"/></g></g></g></svg>